<mxfile host="Electron" modified="2023-07-15T11:51:21.870Z" agent="Mozilla/5.0 (Windows NT 10.0; Win64; x64) AppleWebKit/537.36 (KHTML, like Gecko) draw.io/21.6.1 Chrome/112.0.5615.204 Electron/24.6.1 Safari/537.36" etag="cRRotjUOUXwNi4DM6xpk" version="21.6.1" type="device">
  <diagram name="Page-1" id="1EUVDuzVNK6woF9PAJWl">
    <mxGraphModel dx="819" dy="478" grid="1" gridSize="10" guides="1" tooltips="1" connect="1" arrows="1" fold="1" page="1" pageScale="1" pageWidth="850" pageHeight="1100" math="0" shadow="0">
      <root>
        <mxCell id="0" />
        <mxCell id="1" parent="0" />
        <mxCell id="Tx3M7TzgBZnjMlaplSsi-4" style="edgeStyle=orthogonalEdgeStyle;rounded=0;orthogonalLoop=1;jettySize=auto;html=1;curved=1;exitX=0;exitY=0;exitDx=0;exitDy=0;entryX=1;entryY=0;entryDx=0;entryDy=0;" edge="1" parent="1" source="Tx3M7TzgBZnjMlaplSsi-1" target="Tx3M7TzgBZnjMlaplSsi-3">
          <mxGeometry relative="1" as="geometry">
            <Array as="points">
              <mxPoint x="178" y="100" />
              <mxPoint x="582" y="100" />
              <mxPoint x="582" y="172" />
            </Array>
          </mxGeometry>
        </mxCell>
        <mxCell id="Tx3M7TzgBZnjMlaplSsi-8" value="&lt;font style=&quot;font-size: 14px;&quot;&gt;&lt;span style=&quot;&quot;&gt;(a&lt;/span&gt;&lt;sub style=&quot;&quot;&gt;l&lt;/sub&gt;&lt;span style=&quot;&quot;&gt;, 0.8)&lt;br&gt;&lt;/span&gt;&lt;font style=&quot;border-color: var(--border-color); font-size: 14px;&quot;&gt;(a&lt;/font&gt;&lt;font style=&quot;border-color: var(--border-color); font-size: 14px;&quot;&gt;&lt;sub style=&quot;border-color: var(--border-color);&quot;&gt;r&lt;/sub&gt;&lt;/font&gt;&lt;font style=&quot;border-color: var(--border-color); font-size: 14px;&quot;&gt;, 0.2&lt;/font&gt;&lt;span style=&quot;border-color: var(--border-color);&quot;&gt;)&lt;/span&gt;&lt;span style=&quot;font-size: 11.6667px;&quot;&gt;&lt;br&gt;&lt;/span&gt;&lt;/font&gt;" style="edgeLabel;html=1;align=center;verticalAlign=middle;resizable=0;points=[];" vertex="1" connectable="0" parent="Tx3M7TzgBZnjMlaplSsi-4">
          <mxGeometry x="0.005" y="-1" relative="1" as="geometry">
            <mxPoint as="offset" />
          </mxGeometry>
        </mxCell>
        <mxCell id="Tx3M7TzgBZnjMlaplSsi-5" style="edgeStyle=orthogonalEdgeStyle;curved=1;rounded=0;orthogonalLoop=1;jettySize=auto;html=1;entryX=0;entryY=1;entryDx=0;entryDy=0;exitX=0;exitY=1;exitDx=0;exitDy=0;" edge="1" parent="1" source="Tx3M7TzgBZnjMlaplSsi-1" target="Tx3M7TzgBZnjMlaplSsi-2">
          <mxGeometry relative="1" as="geometry">
            <Array as="points">
              <mxPoint x="178" y="388" />
            </Array>
          </mxGeometry>
        </mxCell>
        <mxCell id="Tx3M7TzgBZnjMlaplSsi-9" value="&lt;font style=&quot;font-size: 14px;&quot;&gt;(a&lt;sub style=&quot;border-color: var(--border-color);&quot;&gt;l&lt;/sub&gt;&lt;span style=&quot;border-color: var(--border-color);&quot;&gt;, 0.2)&lt;br&gt;(a&lt;sub style=&quot;border-color: var(--border-color);&quot;&gt;r&lt;/sub&gt;, 0.8)&lt;br&gt;&lt;/span&gt;&lt;/font&gt;" style="edgeLabel;html=1;align=center;verticalAlign=middle;resizable=0;points=[];" vertex="1" connectable="0" parent="Tx3M7TzgBZnjMlaplSsi-5">
          <mxGeometry x="-0.3818" y="10" relative="1" as="geometry">
            <mxPoint as="offset" />
          </mxGeometry>
        </mxCell>
        <mxCell id="Tx3M7TzgBZnjMlaplSsi-6" style="edgeStyle=orthogonalEdgeStyle;curved=1;rounded=0;orthogonalLoop=1;jettySize=auto;html=1;exitX=0;exitY=0;exitDx=0;exitDy=0;entryX=1;entryY=0;entryDx=0;entryDy=0;" edge="1" parent="1" source="Tx3M7TzgBZnjMlaplSsi-3" target="Tx3M7TzgBZnjMlaplSsi-1">
          <mxGeometry relative="1" as="geometry">
            <mxPoint x="380" y="210" as="targetPoint" />
            <Array as="points">
              <mxPoint x="498" y="150" />
              <mxPoint x="262" y="150" />
            </Array>
          </mxGeometry>
        </mxCell>
        <mxCell id="Tx3M7TzgBZnjMlaplSsi-12" value="&lt;font style=&quot;font-size: 14px;&quot;&gt;(a&lt;/font&gt;&lt;font size=&quot;1&quot; style=&quot;&quot;&gt;&lt;sub&gt;l&lt;/sub&gt;&lt;/font&gt;&lt;font style=&quot;&quot;&gt;&lt;span style=&quot;font-size: 14px; border-color: var(--border-color);&quot;&gt;, 0.2&lt;/span&gt;&lt;/font&gt;&lt;span style=&quot;border-color: var(--border-color); font-size: 14px;&quot;&gt;)&lt;br&gt;(a&lt;sub style=&quot;border-color: var(--border-color);&quot;&gt;r&lt;/sub&gt;, 0.8)&lt;br&gt;&lt;/span&gt;" style="edgeLabel;html=1;align=center;verticalAlign=middle;resizable=0;points=[];" vertex="1" connectable="0" parent="Tx3M7TzgBZnjMlaplSsi-6">
          <mxGeometry x="0.0431" relative="1" as="geometry">
            <mxPoint as="offset" />
          </mxGeometry>
        </mxCell>
        <mxCell id="Tx3M7TzgBZnjMlaplSsi-1" value="S&lt;sub&gt;o&lt;/sub&gt;" style="ellipse;whiteSpace=wrap;html=1;" vertex="1" parent="1">
          <mxGeometry x="160" y="160" width="120" height="80" as="geometry" />
        </mxCell>
        <mxCell id="Tx3M7TzgBZnjMlaplSsi-16" style="edgeStyle=orthogonalEdgeStyle;curved=1;rounded=0;orthogonalLoop=1;jettySize=auto;html=1;exitX=1;exitY=1;exitDx=0;exitDy=0;entryX=1;entryY=1;entryDx=0;entryDy=0;" edge="1" parent="1" source="Tx3M7TzgBZnjMlaplSsi-2" target="Tx3M7TzgBZnjMlaplSsi-3">
          <mxGeometry relative="1" as="geometry" />
        </mxCell>
        <mxCell id="Tx3M7TzgBZnjMlaplSsi-18" value="&lt;font style=&quot;font-size: 14px;&quot;&gt;(a&lt;sub&gt;l&lt;/sub&gt;&lt;span style=&quot;border-color: var(--border-color);&quot;&gt;, 0.2)&lt;br&gt;(a&lt;sub style=&quot;border-color: var(--border-color);&quot;&gt;r&lt;/sub&gt;, 0.8)&lt;br&gt;&lt;/span&gt;&lt;/font&gt;" style="edgeLabel;html=1;align=center;verticalAlign=middle;resizable=0;points=[];" vertex="1" connectable="0" parent="Tx3M7TzgBZnjMlaplSsi-16">
          <mxGeometry x="0.4131" y="22" relative="1" as="geometry">
            <mxPoint as="offset" />
          </mxGeometry>
        </mxCell>
        <mxCell id="Tx3M7TzgBZnjMlaplSsi-19" style="edgeStyle=orthogonalEdgeStyle;curved=1;rounded=0;orthogonalLoop=1;jettySize=auto;html=1;entryX=1;entryY=1;entryDx=0;entryDy=0;exitX=0;exitY=0;exitDx=0;exitDy=0;" edge="1" parent="1" source="Tx3M7TzgBZnjMlaplSsi-2" target="Tx3M7TzgBZnjMlaplSsi-1">
          <mxGeometry relative="1" as="geometry" />
        </mxCell>
        <mxCell id="Tx3M7TzgBZnjMlaplSsi-21" value="&lt;font style=&quot;font-size: 14px;&quot;&gt;(a&lt;/font&gt;&lt;font style=&quot;font-size: 11.6667px;&quot;&gt;&lt;sub&gt;l&lt;/sub&gt;&lt;/font&gt;&lt;span style=&quot;border-color: var(--border-color); font-size: 14px;&quot;&gt;&lt;font style=&quot;font-size: 14px;&quot;&gt;, 0.8)&lt;br&gt;(a&lt;sub style=&quot;border-color: var(--border-color);&quot;&gt;r&lt;/sub&gt;, 0.2)&lt;/font&gt;&lt;br&gt;&lt;/span&gt;" style="edgeLabel;html=1;align=center;verticalAlign=middle;resizable=0;points=[];" vertex="1" connectable="0" parent="Tx3M7TzgBZnjMlaplSsi-19">
          <mxGeometry x="0.2448" y="-12" relative="1" as="geometry">
            <mxPoint as="offset" />
          </mxGeometry>
        </mxCell>
        <mxCell id="Tx3M7TzgBZnjMlaplSsi-2" value="S&lt;sub&gt;r&lt;/sub&gt;" style="ellipse;whiteSpace=wrap;html=1;" vertex="1" parent="1">
          <mxGeometry x="320" y="320" width="120" height="80" as="geometry" />
        </mxCell>
        <mxCell id="Tx3M7TzgBZnjMlaplSsi-20" style="edgeStyle=orthogonalEdgeStyle;curved=1;rounded=0;orthogonalLoop=1;jettySize=auto;html=1;entryX=1;entryY=0;entryDx=0;entryDy=0;exitX=0;exitY=1;exitDx=0;exitDy=0;" edge="1" parent="1" source="Tx3M7TzgBZnjMlaplSsi-3" target="Tx3M7TzgBZnjMlaplSsi-2">
          <mxGeometry relative="1" as="geometry">
            <Array as="points">
              <mxPoint x="498" y="332" />
            </Array>
          </mxGeometry>
        </mxCell>
        <mxCell id="Tx3M7TzgBZnjMlaplSsi-22" value="&lt;font style=&quot;font-size: 14px;&quot;&gt;(a&lt;/font&gt;&lt;font style=&quot;font-size: 11.6667px;&quot;&gt;&lt;sub&gt;l&lt;/sub&gt;&lt;/font&gt;&lt;span style=&quot;border-color: var(--border-color); font-size: 14px;&quot;&gt;&lt;font style=&quot;font-size: 14px;&quot;&gt;, 0.8)&lt;br&gt;(a&lt;sub style=&quot;border-color: var(--border-color);&quot;&gt;r&lt;/sub&gt;, 0.2)&lt;/font&gt;&lt;br&gt;&lt;/span&gt;" style="edgeLabel;html=1;align=center;verticalAlign=middle;resizable=0;points=[];" vertex="1" connectable="0" parent="Tx3M7TzgBZnjMlaplSsi-20">
          <mxGeometry x="-0.2875" y="-5" relative="1" as="geometry">
            <mxPoint as="offset" />
          </mxGeometry>
        </mxCell>
        <mxCell id="Tx3M7TzgBZnjMlaplSsi-3" value="&lt;sub&gt;&lt;span style=&quot;font-size: 12px;&quot;&gt;S&lt;sub&gt;h&lt;/sub&gt;&lt;/span&gt;&lt;/sub&gt;" style="ellipse;whiteSpace=wrap;html=1;" vertex="1" parent="1">
          <mxGeometry x="480" y="160" width="120" height="80" as="geometry" />
        </mxCell>
      </root>
    </mxGraphModel>
  </diagram>
</mxfile>
